<?xml version="1.0" standalone="no"?>
<!DOCTYPE svg PUBLIC "-//W3C//DTD SVG 20010904//EN"
 "http://www.w3.org/TR/2001/REC-SVG-20010904/DTD/svg10.dtd">
<svg version="1.0" xmlns="http://www.w3.org/2000/svg"
 width="208.000000pt" height="208.000000pt" viewBox="0 0 208.000000 208.000000"
 preserveAspectRatio="xMidYMid meet">

<g transform="translate(0.000000,208.000000) scale(0.100000,-0.100000)"
fill="#000000" stroke="none">
<path d="M842 2021 c-11 -32 -40 -41 -131 -41 -54 0 -57 -2 -68 -30 -11 -28
-14 -30 -66 -30 -52 0 -56 -2 -65 -30 -7 -19 -20 -32 -36 -36 -14 -3 -26 -12
-26 -18 0 -29 -28 -48 -80 -54 -47 -6 -55 -10 -58 -30 -3 -16 -12 -25 -32 -29
-27 -5 -29 -8 -32 -62 -3 -52 -5 -57 -35 -70 -18 -8 -33 -22 -33 -31 0 -21
-20 -40 -42 -40 -13 0 -18 -8 -18 -29 0 -63 -12 -93 -41 -103 l-29 -10 0 -149
c0 -146 0 -149 -25 -172 -21 -19 -24 -29 -19 -55 4 -18 12 -32 19 -32 21 0 25
-25 25 -145 l0 -113 29 -5 c33 -7 41 -32 41 -133 0 -56 2 -64 19 -64 22 0 37
-17 43 -45 2 -12 13 -21 27 -23 15 -2 27 -14 34 -31 6 -16 22 -32 38 -38 17
-7 29 -19 31 -34 2 -15 12 -25 27 -29 24 -5 34 -18 45 -52 3 -10 15 -18 27
-18 14 0 24 -10 32 -30 10 -25 17 -30 47 -30 60 0 81 -10 87 -41 5 -28 8 -29
58 -29 58 0 69 -8 80 -58 l7 -32 298 0 298 0 6 34 c4 19 12 39 19 45 7 5 51
11 97 13 80 3 85 4 88 26 2 15 14 27 31 33 16 6 31 21 38 38 7 19 19 30 34 33
16 2 25 11 27 27 3 15 14 27 33 34 17 7 32 22 38 39 7 19 17 28 31 28 14 0 24
9 31 29 7 18 21 33 38 39 18 6 31 20 35 36 4 16 15 28 31 32 21 5 25 12 25 43
0 48 20 85 48 89 21 3 22 7 22 122 0 111 1 120 22 134 12 9 33 16 45 16 22 0
23 2 23 105 l0 105 -29 0 c-54 0 -61 18 -61 149 l0 119 -29 5 c-30 6 -41 33
-41 98 0 21 -5 29 -18 29 -30 0 -42 22 -42 76 0 48 -2 52 -26 58 -16 4 -30 18
-37 36 -6 17 -20 30 -32 32 -11 2 -26 17 -34 36 -8 17 -22 32 -31 32 -21 0
-40 20 -40 42 0 15 -8 18 -46 18 -56 0 -80 12 -88 45 -6 23 -11 25 -62 25 -52
0 -56 2 -67 29 -10 28 -13 29 -93 33 -86 5 -114 17 -114 49 0 18 -10 19 -169
19 l-169 0 -10 -29z m-61 -399 c15 -9 96 -88 182 -176 90 -92 159 -156 166
-152 7 5 11 46 11 111 0 57 3 111 6 120 15 37 56 45 239 45 191 0 229 -8 240
-53 3 -12 5 -176 3 -364 -3 -336 -3 -342 -25 -372 -15 -20 -23 -45 -23 -73 -1
-66 -16 -118 -44 -147 -13 -14 -29 -38 -35 -54 -6 -15 -19 -30 -28 -34 -10 -3
-31 -21 -48 -40 -21 -24 -42 -35 -70 -40 -25 -4 -48 -15 -60 -30 -28 -33 -80
-42 -250 -42 -165 -1 -212 8 -238 43 -11 16 -28 26 -43 26 -29 0 -84 26 -84
40 0 5 -17 21 -39 34 -24 15 -41 35 -45 53 -4 15 -19 41 -34 56 -23 24 -28 40
-34 110 -3 45 -7 135 -7 199 l-1 118 -37 23 c-21 13 -48 27 -60 31 -12 4 -26
20 -32 36 -6 20 -17 30 -30 30 -28 0 -41 29 -41 95 0 68 13 95 44 95 18 0 25
7 29 29 4 20 15 32 36 39 19 7 31 18 33 34 2 15 11 24 26 26 16 2 27 14 34 33
7 21 19 32 38 36 21 4 29 12 33 33 4 19 15 31 37 38 16 6 30 18 30 26 0 36 77
48 121 18z"/>
<path d="M1051 1070 l-71 -71 0 -114 c0 -113 0 -113 31 -144 17 -17 35 -31 40
-31 6 0 27 16 47 36 l37 36 3 170 c2 99 0 174 -6 180 -6 6 -36 -17 -81 -62z"/>
</g>
</svg>
